<svg width="55" height="49" viewBox="0 0 55 49" fill="none" xmlns="http://www.w3.org/2000/svg">
<g clip-path="url(#clip0)">
<path d="M14.7002 17.5C15.0002 17.5 16.3002 17.3 16.5002 17L23.9002 1.39999C24.2002 0.899992 24.0002 0.399993 23.5002 0.0999925C23.0002 -0.100007 22.4002 -7.48038e-06 22.1002 0.499993L13.8002 16.1C13.6002 16.6 13.7002 17.1 14.2002 17.4C14.4002 17.4 14.5002 17.5 14.7002 17.5Z" fill="black"/>
<path d="M39.6003 17.5C39.8003 17.5 39.9003 17.5 40.1003 17.4C40.6003 17.1 40.7003 16.6 40.5003 16.1L32.1003 0.499993C31.9003 -7.48038e-06 31.3003 -0.100007 30.8003 0.0999925C30.3003 0.399993 30.2003 0.899992 30.4003 1.39999L37.8003 17C38.0003 17.3 39.3003 17.5 39.6003 17.5Z" fill="black"/>
<path d="M53.3 15.6H1C0.5 15.6 0 16.4 0 17.3C0 18.3 0.4 19 1 19H2.5L9.2 46.6C9.3 47.7 10.2 48.6 11.3 48.6H43C44.1 48.6 45 47.7 45.1 46.6L51.8 19H53.3C53.8 19 54.3 18.2 54.3 17.3C54.3 16.3 53.8 15.6 53.3 15.6ZM41.8 43.9C41.7 44.8 41 45.5 40.1 45.5H14.2C13.3 45.5 12.5 44.8 12.5 43.9L6.3 18.6H48L41.8 43.9Z" fill="black"/>
<path d="M32.9375 41H20.9609V38.4805L25.2617 34.1328C26.5352 32.8281 27.3672 31.9258 27.7578 31.4258C28.1484 30.918 28.4297 30.4492 28.6016 30.0195C28.7734 29.5898 28.8594 29.1445 28.8594 28.6836C28.8594 27.9961 28.668 27.4844 28.2852 27.1484C27.9102 26.8125 27.4062 26.6445 26.7734 26.6445C26.1094 26.6445 25.4648 26.7969 24.8398 27.1016C24.2148 27.4062 23.5625 27.8398 22.8828 28.4023L20.9141 26.0703C21.7578 25.3516 22.457 24.8438 23.0117 24.5469C23.5664 24.25 24.1719 24.0234 24.8281 23.8672C25.4844 23.7031 26.2188 23.6211 27.0312 23.6211C28.1016 23.6211 29.0469 23.8164 29.8672 24.207C30.6875 24.5977 31.3242 25.1445 31.7773 25.8477C32.2305 26.5508 32.457 27.3555 32.457 28.2617C32.457 29.0508 32.3164 29.793 32.0352 30.4883C31.7617 31.1758 31.332 31.8828 30.7461 32.6094C30.168 33.3359 29.1445 34.3711 27.6758 35.7148L25.4727 37.7891V37.9531H32.9375V41Z" fill="black"/>
</g>
<defs>
<clipPath id="clip0">
<rect width="54.3" height="48.6" fill="white"/>
</clipPath>
</defs>
</svg>
