<svg width="25" height="30" viewBox="0 0 25 30" fill="none" xmlns="http://www.w3.org/2000/svg">
<g clip-path="url(#clip0)">
<path d="M22.597 7.87073H3.17011C2.49321 7.87073 2.04195 8.41826 2.16604 9.09126L5.81 28.7795C5.93409 29.4525 6.58843 30 7.26532 30H18.7161C19.393 30 20.0361 29.4525 20.1602 28.7795L23.6123 9.09126C23.7364 8.41826 23.2852 7.87073 22.597 7.87073ZM9.45395 27.3764C8.94628 27.4677 8.43861 27.057 8.33707 26.4639L5.76487 11.7262C5.66334 11.1331 5.9905 10.5741 6.50946 10.4829C7.01713 10.3916 7.5248 10.8023 7.62633 11.3954L10.1985 26.1217C10.3001 26.7262 9.9729 27.2852 9.45395 27.3764ZM13.8312 26.4068C13.8312 27.0114 13.4138 27.5019 12.8836 27.5019C12.3646 27.5019 11.9359 27.0114 11.9359 26.4068V11.4525C11.9359 10.8479 12.3533 10.3574 12.8836 10.3574C13.4025 10.3574 13.8312 10.8479 13.8312 11.4525V26.4068ZM20.1376 11.7262L17.5767 26.4639C17.4752 27.057 16.9675 27.4677 16.4598 27.3764C15.9521 27.2852 15.6137 26.7262 15.7152 26.1331L18.2874 11.4068C18.389 10.8137 18.8966 10.403 19.4043 10.4943C19.912 10.5741 20.2504 11.1331 20.1376 11.7262Z" fill="#010002"/>
<path d="M18.028 3.75285C17.8475 3.54753 17.7234 3.28517 17.6557 3C16.9788 -0.159693 13.662 3.12168e-06 13.662 3.12168e-06H11.4057C8.35966 3.12168e-06 7.49097 1.74525 7.26534 3C7.22022 3.27377 7.1074 3.53612 6.94946 3.74145C6.66742 4.09506 5.73105 4.18631 5.05415 4.18631H1.22969C0.552798 4.19772 0 4.71103 0 5.36122C0 6.01141 0.552798 6.52472 1.22969 6.52472H23.7816C24.4585 6.52472 25.0113 6 25.0113 5.36122C25.0113 4.72244 24.4585 4.19772 23.7816 4.19772H19.9571C19.2802 4.19772 18.3326 4.10647 18.028 3.75285ZM11.0785 2.01901H12.3421H13.6056C14.6773 2.01901 15.2076 2.52092 15.4783 3.03422C15.6137 3.29658 15.5799 3.55894 15.4332 3.77567C15.1963 4.12928 14.2599 4.19772 13.5718 4.19772H11.1124C10.4355 4.19772 9.4991 4.12928 9.2509 3.77567C9.10424 3.57034 9.0704 3.30799 9.20578 3.03422C9.47653 2.50951 10.0068 2.01901 11.0785 2.01901Z" fill="#010002"/>
</g>
<defs>
<clipPath id="clip0">
<rect width="25" height="30" fill="white"/>
</clipPath>
</defs>
</svg>
